<?xml version="1.0" encoding="UTF-8"?>
<svg width="960px" height="212px" viewBox="0 0 960 212" version="1.1" xmlns="http://www.w3.org/2000/svg" xmlns:xlink="http://www.w3.org/1999/xlink">
    <title>Desktop HD</title>
    <defs>
        <radialGradient cx="50%" cy="0%" fx="50%" fy="0%" r="65.9847005%" gradientTransform="translate(0.500000,0.000000),scale(0.219792,1.000000),rotate(90.000000),scale(1.000000,2.843354),translate(-0.500000,-0.000000)" id="radialGradient-1">
            <stop stop-color="#0B3C9F" offset="0%"></stop>
            <stop stop-color="#EEEEEE" offset="100%"></stop>
        </radialGradient>
        <rect id="path-2" x="240" y="78" width="960" height="211"></rect>
        <radialGradient cx="50%" cy="50%" fx="50%" fy="50%" r="44.0581387%" id="radialGradient-4">
            <stop stop-color="#FFFFFF" offset="0%"></stop>
            <stop stop-color="#FFFFFF" stop-opacity="0" offset="100%"></stop>
        </radialGradient>
    </defs>
    <g id="Page-1" stroke="none" stroke-width="1" fill="none" fill-rule="evenodd">
        <g id="Desktop-HD" transform="translate(-240.000000, -78.000000)">
            <rect fill="#EEEEEE" x="0" y="0" width="1440" height="1024"></rect>
            <mask id="mask-3" fill="white">
                <use xlink:href="#path-2"></use>
            </mask>
            <use id="Rectangle" fill="url(#radialGradient-1)" xlink:href="#path-2"></use>
            <path d="M721,433 L721,946.983349 C699.034824,947.160068 676.993458,945.931333 655,943.240224 L655,943.240224 L721,433 Z M722,432 L856,929.49477 C834.623834,935.343353 812.699027,939.8838 790.319452,943 L790.319452,943 L722,432 Z M720,434 L587.130389,931 C565.861116,925.436084 544.770767,918.469656 524,910.04526 L524,910.04526 L720,434 Z M723,432 L980,877.011 L978.024453,878.167511 C960.219866,888.530065 941.750213,897.867725 922.679982,906.090904 L920.5586,907 L723,432 Z M719,433 L461.753742,878 C442.48637,867.093244 423.856259,854.932784 406,841.530032 L406,841.530032 L719,433 Z M724,431 L1088,795.587 L1086.39433,797.208948 C1071.90712,811.784089 1056.44304,825.608823 1040.0226,838.564108 L1038.19417,840 L724,431 Z M718,432 L353.412,796 L351.790584,794.394331 C337.215894,779.907119 323.391176,764.443039 310.435892,748.022596 L309,746.194168 L718,432 Z M725,430 L1170,687.246258 C1159.09324,706.51363 1146.93278,725.143741 1133.53003,743 L1133.53003,743 L725,430 Z M717,430 L270.180037,688 C259.221164,668.701155 249.456228,648.639913 241,627.901445 L241,627.901445 L717,430 Z M726,429 L1223,561.869611 C1217.43608,583.138884 1210.46966,604.229233 1202.04526,625 L1202.04526,625 L726,429 Z M715.963,428.01 L218.480446,562 C212.967569,540.560731 208.777264,518.593689 206,496.177179 L206,496.177179 L715.963,428.01 Z M1238.98335,427 C1239.16007,448.965176 1237.93133,471.006027 1235.24022,493 L1235.24022,493 L725,427 Z M1222.494,293 L1223.09512,295.213281 C1228.65479,315.888762 1232.99125,337.072682 1236,358.680548 L1236,358.680548 L725,427 L1222.494,293 Z M1170.011,169 L1171.16751,170.975547 C1181.91386,189.439563 1191.558,208.618821 1200,228.4414 L1200,228.4414 L725,426 L1170.011,169 Z M242.911746,230 L718,425.994814 L718,426 L221,292.869784 C226.885328,271.66718 234.175582,250.674108 242.911746,230 L242.911746,230 Z M205.768739,360 L716,425.979425 L716,425.980454 L201,426 C201.158362,404.019546 202.728606,381.976339 205.768739,360 L205.768739,360 Z M855.130216,-71 C876.33282,-65.1146716 897.325892,-57.8244183 918,-49.0882543 L918,-49.0882543 L722.005186,426 L722,426 Z M1087.52978,62 C1102.94015,77.7079247 1117.46927,94.5292057 1131,112.4436 L1131,112.4436 L724,426 Z M308.384895,112 L717,425 L271,167.269478 C282.212047,148.147235 294.679035,129.676167 308.384895,112 L308.384895,112 Z M981.730522,-21 C1000.85277,-9.78743439 1019.32383,2.67903516 1037,16.3848947 L1037,16.3848947 L724,425 Z M403.4436,17 L717,424 L353,60.4702168 C368.707925,45.0598492 385.529206,30.5307257 403.4436,17 L403.4436,17 Z M521.098555,-52 L719,424 L461,-22.8197085 C480.298845,-33.7786768 500.360087,-43.5436982 521.098555,-52 L521.098555,-52 Z M722,-91 C743.980454,-90.84169 766.023661,-89.2713936 788,-86.2312607 L788,-86.2312607 L722.020575,424 L722.019546,424 Z M652.822821,-86 L720.988,423.956 L587,-73.5195545 C607.699984,-78.8423315 628.89197,-82.9321768 650.505479,-85.70766 L652.822821,-86 Z" id="raios" fill="#FFFFFF" fill-rule="nonzero" opacity="0.042875744" mask="url(#mask-3)"></path>
            <circle id="Oval" fill="url(#radialGradient-4)" mask="url(#mask-3)" cx="720" cy="289" r="206"></circle>
            <g id="nuvens" mask="url(#mask-3)">
                <g transform="translate(240.000000, 154.000000)">
                    <path d="M25.7228754,80.8908003 C34.5819535,68.2326209 39.0955393,89.7784582 51.578086,80.8908003 C64.0606327,72.0031425 62.6713357,47.7640755 99.5009449,55.3051186 C124.054018,60.3324806 137.638918,70.5667533 140.255645,86.0079367 C141.764468,42.7821888 155.701794,25.5120007 182.067625,34.1973723 C221.61637,47.2254296 185.305534,19.9391046 209.127293,5.27500039 C232.949052,-9.38910382 253.681018,9.2086719 253.681018,28.2170508 C253.681018,47.2254296 249.980555,40.2230325 262.667506,36.183188 C275.354457,32.1433435 292.879278,48.6793528 286.979852,68.2326209 C289.258313,75.7168537 310.084284,56.6517455 314.429803,98.3967931 C314.429803,83.853353 332.780364,86.9926488 334,100.8207 C334,113.389105 319.209574,118.506241 289.628721,116.172109 C107.481885,119.94263 11.8653958,119.94263 2.77925455,116.172109 C-4.63794214,105.235072 4.48674563,99.8991103 10.4078549,103.783252 C9.77003019,87.9500078 15.3460275,82.5067381 25.7228754,80.8908003 Z" id="nuvem-copy-2" fill-opacity="0.3" fill="#FFFFFF"></path>
                    <path d="M36.1885323,99.0056142 C46.2411987,86.6424377 51.3629023,107.686142 65.5272293,99.0056142 C79.6915563,90.325086 78.1150785,66.6509184 119.906761,74.016215 C147.767882,78.9264127 163.183083,88.9221724 166.152364,104.003494 C167.864471,61.7851361 183.679581,44.9174353 213.597694,53.4003915 C258.474863,66.1248258 217.271848,39.4744173 244.303126,25.1520648 C271.334403,10.8297123 294.859598,28.9940608 294.859598,47.5594433 C294.859598,66.1248258 290.66057,59.2856218 305.056841,55.3399272 C319.453112,51.3942325 339.339061,67.5448648 332.644802,86.6424377 C335.230242,93.952248 358.862106,75.3314583 363.7931,116.103624 C363.7931,101.899124 384.616041,104.965257 386,118.471041 C386,130.746535 369.216852,135.744415 335.650555,133.46468 C128.962977,137.147329 20.464027,137.147329 10.153705,133.46468 C1.73718542,122.782534 12.0912473,117.570929 18.8101108,121.36455 C18.0863516,105.900304 24.4136061,100.583892 36.1885323,99.0056142 Z" id="nuvem-copy" fill="#F9F9F9"></path>
                    <path d="M100.109138,103.413499 C109.445652,91.9254039 114.202484,111.479609 127.357743,103.413499 C140.513002,95.3473898 139.048833,73.3489089 177.863271,80.1928807 C203.739564,84.7555286 218.056584,94.0437761 220.814333,108.057623 C222.404469,68.8275327 237.092909,53.1537485 264.879652,61.0362706 C306.559768,72.8600538 268.292059,48.0959941 293.397626,34.7873953 C318.503192,21.4787965 340.35245,38.3574501 340.35245,55.6087519 C340.35245,72.8600538 336.452561,66.5049371 349.82324,62.8385236 C363.193919,59.1721101 381.663192,74.1795807 375.445832,91.9254039 C377.847085,98.7178168 399.795413,81.4150295 404.375122,119.301291 C404.375122,106.102203 423.714635,108.951311 425,121.501139 C425,132.907759 409.412485,137.551883 378.237455,135.433511 C186.274322,138.855496 85.5048483,138.855496 75.9290347,135.433511 C68.1121089,125.50746 77.7285463,120.664739 83.9687573,124.189843 C83.2965588,109.820175 89.1730589,104.880065 100.109138,103.413499 Z" id="nuvem" fill="#FFFFFF"></path>
                </g>
            </g>
            <g id="nuvens" mask="url(#mask-3)">
                <g transform="translate(987.500000, 222.000000) scale(-1, 1) translate(-987.500000, -222.000000) translate(775.000000, 153.000000)">
                    <path d="M25.7228754,80.8908003 C34.5819535,68.2326209 39.0955393,89.7784582 51.578086,80.8908003 C64.0606327,72.0031425 62.6713357,47.7640755 99.5009449,55.3051186 C124.054018,60.3324806 137.638918,70.5667533 140.255645,86.0079367 C141.764468,42.7821888 155.701794,25.5120007 182.067625,34.1973723 C221.61637,47.2254296 185.305534,19.9391046 209.127293,5.27500039 C232.949052,-9.38910382 253.681018,9.2086719 253.681018,28.2170508 C253.681018,47.2254296 249.980555,40.2230325 262.667506,36.183188 C275.354457,32.1433435 292.879278,48.6793528 286.979852,68.2326209 C289.258313,75.7168537 310.084284,56.6517455 314.429803,98.3967931 C314.429803,83.853353 332.780364,86.9926488 334,100.8207 C334,113.389105 319.209574,118.506241 289.628721,116.172109 C107.481885,119.94263 11.8653958,119.94263 2.77925455,116.172109 C-4.63794214,105.235072 4.48674563,99.8991103 10.4078549,103.783252 C9.77003019,87.9500078 15.3460275,82.5067381 25.7228754,80.8908003 Z" id="nuvem-copy-2" fill-opacity="0.3" fill="#FFFFFF"></path>
                    <path d="M34.1885323,100.005614 C44.2411987,87.6424377 49.3629023,108.686142 63.5272293,100.005614 C77.6915563,91.325086 76.1150785,67.6509184 117.906761,75.016215 C145.767882,79.9264127 161.183083,89.9221724 164.152364,105.003494 C165.864471,62.7851361 181.679581,45.9174353 211.597694,54.4003915 C256.474863,67.1248258 215.271848,40.4744173 242.303126,26.1520648 C269.334403,11.8297123 292.859598,29.9940608 292.859598,48.5594433 C292.859598,67.1248258 288.66057,60.2856218 303.056841,56.3399272 C317.453112,52.3942325 337.339061,68.5448648 330.644802,87.6424377 C333.230242,94.952248 356.862106,76.3314583 361.7931,117.103624 C361.7931,102.899124 382.616041,105.965257 384,119.471041 C384,131.746535 367.216852,136.744415 333.650555,134.46468 C126.962977,138.147329 18.464027,138.147329 8.15370502,134.46468 C-0.262814582,123.782534 10.0912473,118.570929 16.8101108,122.36455 C16.0863516,106.900304 22.4136061,101.583892 34.1885323,100.005614 Z" id="nuvem-copy" fill="#F9F9F9"></path>
                    <path d="M100.109138,103.413499 C109.445652,91.9254039 114.202484,111.479609 127.357743,103.413499 C140.513002,95.3473898 139.048833,73.3489089 177.863271,80.1928807 C203.739564,84.7555286 218.056584,94.0437761 220.814333,108.057623 C222.404469,68.8275327 237.092909,53.1537485 264.879652,61.0362706 C306.559768,72.8600538 268.292059,48.0959941 293.397626,34.7873953 C318.503192,21.4787965 340.35245,38.3574501 340.35245,55.6087519 C340.35245,72.8600538 336.452561,66.5049371 349.82324,62.8385236 C363.193919,59.1721101 381.663192,74.1795807 375.445832,91.9254039 C377.847085,98.7178168 399.795413,81.4150295 404.375122,119.301291 C404.375122,106.102203 423.714635,108.951311 425,121.501139 C425,132.907759 409.412485,137.551883 378.237455,135.433511 C186.274322,138.855496 85.5048483,138.855496 75.9290347,135.433511 C68.1121089,125.50746 77.7285463,120.664739 83.9687573,124.189843 C83.2965588,109.820175 89.1730589,104.880065 100.109138,103.413499 Z" id="nuvem" fill="#FFFFFF"></path>
                </g>
            </g>
            <g id="bandeirinhas" mask="url(#mask-3)">
                <g transform="translate(233.000000, -526.000000)">
                    <g id="bandeirinhas-baixo" transform="translate(340.000000, 503.500000) rotate(9.000000) translate(-340.000000, -503.500000) translate(29.000000, 294.000000)">
                        <path d="M33.51248,371.89348 L32.8111534,370.677808 L32.8111534,370.677808 C172.245468,406.860977 314.479839,372.358258 420.842162,289.514425 C494.267391,232.324742 550.597539,152.097754 577.109827,56.1839057 L577.811153,57.399578 L577.811153,57.399578 C512.89286,292.250867 269.202312,433.054428 33.51248,371.89348 Z" id="Oval-Copy-15" fill="#826C02"></path>
                        <polygon id="Rectangle-Copy-27" fill="#B82369" transform="translate(396.844577, 321.643150) rotate(-25.000000) translate(-396.844577, -321.643150) " points="382.974935 311.265145 407.300784 307.864814 410.71422 332.021156 397.056964 321.644332 386.38837 335.421487"></polygon>
                        <polygon id="Rectangle-Copy-19" fill="#D36627" transform="translate(420.207991, 305.173450) rotate(-24.000000) translate(-420.207991, -305.173450) " points="405.642794 295.781688 429.671066 290.704697 434.773189 314.565211 420.419948 305.159916 410.744917 319.642202"></polygon>
                        <polygon id="Rectangle-Copy-20" fill="#D9A326" transform="translate(441.936876, 287.478394) rotate(-25.000000) translate(-441.936876, -287.478394) " points="426.746989 279.118961 450.361042 272.389809 457.126763 295.837828 442.147373 287.45021 433.512709 302.56698"></polygon>
                        <polygon id="Rectangle-Copy-28" fill="#87AD1F" transform="translate(462.827986, 269.189594) rotate(-23.000000) translate(-462.827986, -269.189594) " points="447.087595 261.902735 470.171724 253.554506 478.568376 276.476452 463.035994 269.146898 455.484247 284.824681"></polygon>
                        <polygon id="Rectangle-Copy-30" fill="#B82369" transform="translate(212.791212, 391.617640) rotate(-1.000000) translate(-212.791212, -391.617640) " points="198.920822 381.235717 223.243514 377.840077 226.661603 401.999564 213.003578 391.618865 202.338911 405.395203"></polygon>
                        <polygon id="Rectangle-Copy-26" fill="#D36627" points="226.754245 377.199389 250.670655 372.115799 255.754245 396.032209 241.465221 386.602279 231.837835 401.115799"></polygon>
                        <polygon id="Rectangle-Copy-25" fill="#D9A326" transform="translate(268.317058, 379.592769) rotate(-1.000000) translate(-268.317058, -379.592769) " points="253.126975 371.229348 276.737254 364.504404 283.507142 387.95619 268.527529 379.564625 259.896863 394.681134"></polygon>
                        <polygon id="Rectangle-Copy-29" fill="#87AD1F" transform="translate(294.907628, 371.291501) rotate(1.000000) translate(-294.907628, -371.291501) " points="279.16704 364.000653 302.247397 355.656633 310.648217 378.582349 295.115609 371.248847 287.567859 386.926369"></polygon>
                        <polygon id="Rectangle-Copy-5" fill="#70C2C0" transform="translate(321.134932, 360.921324) rotate(-1.000000) translate(-321.134932, -360.921324) " points="305.146332 354.176767 327.917091 345.042979 337.123532 367.665881 321.341274 360.871533 314.352772 376.799669"></polygon>
                        <polygon id="Rectangle-Copy-24" fill="#4D74A8" points="330.261431 343.172083 352.440495 332.355847 363.261431 354.539611 346.964734 348.791113 341.082366 365.355847"></polygon>
                        <polygon id="Rectangle-Copy-23" fill="#6F1559" points="356.194182 331.455987 377.42548 319.687286 389.194182 340.918585 372.890564 336.11321 367.962883 352.687286"></polygon>
                        <polygon id="Rectangle-Copy-36" fill="#B82369" transform="translate(18.573810, 379.085137) rotate(23.000000) translate(-18.573810, -379.085137) " points="4.70000844 368.701147 29.024074 365.310994 32.4476123 389.469127 18.7861941 379.086408 8.12354676 392.859281"></polygon>
                        <polygon id="Rectangle-Copy-35" fill="#D36627" transform="translate(44.972186, 384.737317) rotate(24.000000) translate(-44.972186, -384.737317) " points="30.4030383 375.339428 54.4291771 370.272545 59.5413345 394.135207 45.1841374 384.723873 35.5151957 399.20209"></polygon>
                        <polygon id="Rectangle-Copy-34" fill="#D9A326" transform="translate(71.885496, 390.441422) rotate(25.000000) translate(-71.885496, -390.441422) " points="56.6919834 382.0754 80.3031222 375.356488 87.0790078 398.807443 72.0959811 390.413328 63.467869 405.526355"></polygon>
                        <polygon id="Rectangle-Copy-33" fill="#87AD1F" transform="translate(99.995496, 394.514431) rotate(25.000000) translate(-99.995496, -394.514431) " points="84.2518102 387.221061 107.332771 378.88266 115.739181 401.807802 100.203489 394.471824 92.6582198 410.146203"></polygon>
                        <polygon id="Rectangle-Copy-6" fill="#70C2C0" transform="translate(127.336234, 396.158485) rotate(23.000000) translate(-127.336234, -396.158485) " points="111.344815 389.411096 134.11559 380.282957 143.327652 402.905875 127.542583 396.108743 120.556877 412.034013"></polygon>
                        <polygon id="Rectangle-Copy-32" fill="#4D74A8" transform="translate(156.040655, 396.787508) rotate(24.000000) translate(-156.040655, -396.787508) " points="139.615738 391.166025 161.690041 380.479526 172.465572 402.408991 156.243005 396.723565 150.391269 413.09549"></polygon>
                        <polygon id="Rectangle-Copy-31" fill="#6F1559" transform="translate(185.139324, 395.240995) rotate(24.000000) translate(-185.139324, -395.240995) " points="168.441822 390.482838 189.923483 378.660587 201.836826 399.999151 185.33803 395.166595 180.355165 411.821402"></polygon>
                    </g>
                    <g id="bandeirinhas-baixo-copy" transform="translate(602.500000, 438.000000) rotate(9.000000) translate(-602.500000, -438.000000) translate(169.000000, 146.000000)">
                        <path d="M47.8321921,518.249221 L46.8554823,516.554648 L46.8554823,516.554648 C241.040152,566.991792 439.124349,518.897094 587.25096,403.417811 C689.507381,323.698859 767.956155,211.867301 804.878772,78.1692085 L805.855482,79.863782 L805.855482,79.863782 C715.446336,407.232246 376.068123,603.503876 47.8321921,518.249221 Z" id="Oval-Copy-15" fill="#826C02"></path>
                        <polygon id="Rectangle-Copy-27" fill="#C81368" transform="translate(553.157956, 448.304534) rotate(-25.000000) translate(-553.157956, -448.304534) " points="533.825047 433.839038 567.73208 429.10051 572.490865 462.770031 553.453996 448.306188 538.583832 467.508559"></polygon>
                        <polygon id="Rectangle-Copy-19" fill="#E56115" transform="translate(585.724001, 425.349152) rotate(-24.000000) translate(-585.724001, -425.349152) " points="565.421604 412.258296 598.913826 405.182788 606.026397 438.440008 586.019441 425.330296 572.534175 445.515515"></polygon>
                        <polygon id="Rectangle-Copy-30" fill="#C81368" transform="translate(296.607687, 545.834611) rotate(-1.000000) translate(-296.607687, -545.834611) " points="277.273863 531.364317 311.17703 526.631533 315.941511 560.304905 296.903701 545.836319 282.038344 565.037688"></polygon>
                        <polygon id="Rectangle-Copy-26" fill="#E56115" points="315.793198 525.282122 349.606054 518.094977 356.793198 551.907833 336.591475 538.575863 322.980342 559.094977"></polygon>
                        <polygon id="Rectangle-Copy-25" fill="#ECAB13" transform="translate(374.004646, 529.074409) rotate(-1.000000) translate(-374.004646, -529.074409) " points="352.831316 517.41749 385.741452 508.044338 395.177975 540.731327 374.298019 529.035182 362.267839 550.104479"></polygon>
                        <polygon id="Rectangle-Copy-29" fill="#8EBD0F" transform="translate(411.068993, 517.504145) rotate(1.000000) translate(-411.068993, -517.504145) " points="389.128346 507.342225 421.299855 495.712335 433.00964 527.666065 411.358896 517.444693 400.838132 539.295955"></polygon>
                        <polygon id="Rectangle-Copy-5" fill="#68CAC9" transform="translate(447.626987, 503.050246) rotate(-1.000000) translate(-447.626987, -503.050246) " points="425.340616 493.649691 457.080549 480.919103 469.913358 512.450802 447.914605 502.980849 438.173425 525.181389"></polygon>
                        <polygon id="Rectangle-Copy-24" fill="#4373B2" points="460.444976 478.510347 491.361248 463.433169 506.444976 494.355992 483.728368 486.342934 475.528704 509.433169"></polygon>
                        <polygon id="Rectangle-Copy-23" fill="#790C5E" points="496.099919 462.041256 525.695063 445.6364 542.099919 475.231543 519.373665 468.533142 512.504775 491.6364"></polygon>
                        <polygon id="Rectangle-Copy-36" fill="#C81368" transform="translate(25.889861, 528.366874) rotate(23.000000) translate(-25.889861, -528.366874) " points="6.55185938 513.89405 40.4567082 509.167983 45.2278628 542.839698 26.1858976 528.368637 11.3230139 547.565765"></polygon>
                        <polygon id="Rectangle-Copy-35" fill="#E56115" transform="translate(62.686311, 536.244853) rotate(24.000000) translate(-62.686311, -536.244853) " points="42.3790778 523.146494 75.8686879 516.083362 82.9935448 549.343212 62.9817449 536.226107 49.5039346 556.406344"></polygon>
                        <polygon id="Rectangle-Copy-34" fill="#ECAB13" transform="translate(100.200522, 544.195204) rotate(25.000000) translate(-100.200522, -544.195204) " points="79.0229947 532.535102 111.934183 523.169334 121.378049 555.855305 100.493913 544.156039 88.4668608 565.221073"></polygon>
                        <polygon id="Rectangle-Copy-33" fill="#8EBD0F" transform="translate(139.382789, 549.872143) rotate(25.000000) translate(-139.382789, -549.872143) " points="117.43835 539.707135 149.610598 528.084124 161.327228 560.037151 139.672707 549.812749 129.15498 571.660162"></polygon>
                        <polygon id="Rectangle-Copy-6" fill="#68CAC9" transform="translate(177.492789, 552.163617) rotate(23.000000) translate(-177.492789, -552.163617) " points="155.202967 542.759593 186.942919 530.035922 199.78261 561.56764 177.780415 552.094278 168.042659 574.291311"></polygon>
                        <polygon id="Rectangle-Copy-32" fill="#4373B2" transform="translate(217.503614, 553.040345) rotate(24.000000) translate(-217.503614, -553.040345) " points="194.609537 545.205647 225.378732 530.309906 240.397691 560.875043 217.785667 552.951214 209.628496 575.770784"></polygon>
                        <polygon id="Rectangle-Copy-31" fill="#790C5E" transform="translate(258.063977, 550.884823) rotate(24.000000) translate(-258.063977, -550.884823) " points="234.789919 544.25345 264.733086 527.774704 281.338035 557.516197 258.340951 550.781117 251.394868 573.994942"></polygon>
                    </g>
                    <g id="bandeirinhas-baixo-copy-2" transform="translate(869.500000, 413.000000) rotate(9.000000) translate(-869.500000, -413.000000) translate(367.000000, 75.000000)">
                        <path d="M55.0209233,600.270385 L53.888506,598.30689 L53.888506,598.30689 C279.030152,656.748189 508.69299,601.021071 680.433987,467.215728 C798.992156,374.845726 889.947257,245.266985 932.756089,90.351587 L933.888506,92.3150819 L933.888506,92.3150819 C829.066308,471.635498 435.584322,699.054582 55.0209233,600.270385 Z" id="Oval-Copy-15" fill="#826C02"></path>
                        <polygon id="Rectangle-Copy-30" fill="#D90368" transform="translate(343.818599, 632.756903) rotate(-1.000000) translate(-343.818599, -632.756903) " points="321.407437 615.982291 360.706964 610.495782 366.22976 649.531516 344.161729 632.758883 326.930234 655.018024"></polygon>
                        <polygon id="Rectangle-Copy-26" fill="#FB4D3D" points="365.547661 609.389355 405.133443 600.975137 413.547661 640.560919 389.896864 624.952759 373.961879 648.975137"></polygon>
                        <polygon id="Rectangle-Copy-25" fill="#FFB400" transform="translate(433.534797, 613.327696) rotate(-1.000000) translate(-433.534797, -613.327696) " points="408.991333 599.814483 447.139774 588.948644 458.07826 626.84091 433.874866 613.282222 419.929819 637.706748"></polygon>
                        <polygon id="Rectangle-Copy-29" fill="#98CE00" transform="translate(476.498660, 599.914908) rotate(1.000000) translate(-476.498660, -599.914908) " points="451.065716 588.134708 488.357934 574.652841 501.931604 611.695108 476.834706 599.845989 464.639386 625.176975"></polygon>
                        <polygon id="Rectangle-Copy-5" fill="#60D3D2" transform="translate(518.875573, 583.159275) rotate(-1.000000) translate(-518.875573, -583.159275) " points="493.041903 572.261743 529.833884 557.503811 544.709243 594.056807 519.208971 583.078826 507.917262 608.814739"></polygon>
                        <polygon id="Rectangle-Copy-24" fill="#3A72BC" points="534.109475 554.835556 569.730398 537.464026 587.109475 573.092495 560.935992 563.860059 551.488553 590.464026"></polygon>
                        <polygon id="Rectangle-Copy-23" fill="#820263" points="575.37768 535.65452 609.476433 516.753272 628.37768 550.852025 602.193082 543.134302 594.278927 569.753272"></polygon>
                        <polygon id="Rectangle-Copy-36" fill="#D90368" transform="translate(30.010739, 612.507489) rotate(23.000000) translate(-30.010739, -612.507489) " points="7.59408754 595.729552 46.8958237 590.25187 52.4273897 629.285426 30.3538987 612.509541 13.1256535 634.763108"></polygon>
                        <polygon id="Rectangle-Copy-35" fill="#FB4D3D" transform="translate(72.664063, 621.640009) rotate(24.000000) translate(-72.664063, -621.640009) " points="49.1239029 606.455367 87.9442638 598.268504 96.2042237 636.824651 73.0065242 621.618286 57.3838627 645.011514"></polygon>
                        <polygon id="Rectangle-Copy-34" fill="#FFB400" transform="translate(116.149394, 630.856426) rotate(25.000000) translate(-116.149394, -630.856426) " points="91.6004139 617.339029 129.750238 606.482895 140.698374 644.373823 116.489487 630.811034 102.54855 655.229957"></polygon>
                        <polygon id="Rectangle-Copy-33" fill="#98CE00" transform="translate(161.568285, 637.437399) rotate(25.000000) translate(-161.568285, -637.437399) " points="136.130358 625.653141 173.423547 612.180314 187.006212 649.221657 161.904351 637.368556 149.713022 662.694483"></polygon>
                        <polygon id="Rectangle-Copy-6" fill="#60D3D2" transform="translate(205.744236, 640.093782) rotate(23.000000) translate(-205.744236, -640.093782) " points="179.906031 629.191693 216.698037 614.44285 231.582441 650.99587 206.077645 640.01341 194.790435 665.744713"></polygon>
                        <polygon id="Rectangle-Copy-32" fill="#3A72BC" transform="translate(252.123566, 641.110126) rotate(24.000000) translate(-252.123566, -641.110126) " points="225.584933 632.027224 261.251614 614.760457 278.662199 650.193028 252.450514 641.00681 242.995519 667.459795"></polygon>
                        <polygon id="Rectangle-Copy-31" fill="#820263" transform="translate(299.139905, 638.611345) rotate(24.000000) translate(-299.139905, -638.611345) " points="272.160839 630.923366 306.869956 611.821504 326.11897 646.299323 299.460964 638.491133 291.409853 665.401186"></polygon>
                    </g>
                </g>
            </g>
        </g>
    </g>
</svg>