<?xml version="1.0" encoding="UTF-8"?>
<svg width="960px" height="212px" viewBox="0 0 960 212" version="1.1" xmlns="http://www.w3.org/2000/svg" xmlns:xlink="http://www.w3.org/1999/xlink">
    <title>Desktop HD</title>
    <defs>
        <radialGradient cx="50%" cy="0%" fx="50%" fy="0%" r="65.9847005%" gradientTransform="translate(0.500000,0.000000),scale(0.219792,1.000000),rotate(90.000000),scale(1.000000,2.843354),translate(-0.500000,-0.000000)" id="radialGradient-1">
            <stop stop-color="#0B3C9F" offset="0%"></stop>
            <stop stop-color="#EEEEEE" offset="100%"></stop>
        </radialGradient>
        <rect id="path-2" x="240" y="78" width="960" height="211"></rect>
        <radialGradient cx="50%" cy="50%" fx="50%" fy="50%" r="44.0581387%" id="radialGradient-4">
            <stop stop-color="#FFFFFF" offset="0%"></stop>
            <stop stop-color="#FFFFFF" stop-opacity="0" offset="100%"></stop>
        </radialGradient>
    </defs>
    <g id="Tela-inicial-logado" stroke="none" stroke-width="1" fill="none" fill-rule="evenodd">
        <g id="Desktop-HD" transform="translate(-240.000000, -78.000000)">
            <rect fill="#EEEEEE" x="0" y="0" width="1440" height="1024"></rect>
            <mask id="mask-3" fill="white">
                <use xlink:href="#path-2"></use>
            </mask>
            <use id="Rectangle" fill="url(#radialGradient-1)" xlink:href="#path-2"></use>
            <path d="M721,433 L721,946.983349 C699.034824,947.160068 676.993458,945.931333 655,943.240224 L655,943.240224 L721,433 Z M722,432 L856,929.49477 C834.623834,935.343353 812.699027,939.8838 790.319452,943 L790.319452,943 L722,432 Z M720,434 L587.130389,931 C565.861116,925.436084 544.770767,918.469656 524,910.04526 L524,910.04526 L720,434 Z M723,432 L980,877.011 L978.024453,878.167511 C960.219866,888.530065 941.750213,897.867725 922.679982,906.090904 L920.5586,907 L723,432 Z M719,433 L461.753742,878 C442.48637,867.093244 423.856259,854.932784 406,841.530032 L406,841.530032 L719,433 Z M724,431 L1088,795.587 L1086.39433,797.208948 C1071.90712,811.784089 1056.44304,825.608823 1040.0226,838.564108 L1038.19417,840 L724,431 Z M718,432 L353.412,796 L351.790584,794.394331 C337.215894,779.907119 323.391176,764.443039 310.435892,748.022596 L309,746.194168 L718,432 Z M725,430 L1170,687.246258 C1159.09324,706.51363 1146.93278,725.143741 1133.53003,743 L1133.53003,743 L725,430 Z M717,430 L270.180037,688 C259.221164,668.701155 249.456228,648.639913 241,627.901445 L241,627.901445 L717,430 Z M726,429 L1223,561.869611 C1217.43608,583.138884 1210.46966,604.229233 1202.04526,625 L1202.04526,625 L726,429 Z M715.963,428.01 L218.480446,562 C212.967569,540.560731 208.777264,518.593689 206,496.177179 L206,496.177179 L715.963,428.01 Z M1238.98335,427 C1239.16007,448.965176 1237.93133,471.006027 1235.24022,493 L1235.24022,493 L725,427 Z M1222.494,293 L1223.09512,295.213281 C1228.65479,315.888762 1232.99125,337.072682 1236,358.680548 L1236,358.680548 L725,427 L1222.494,293 Z M1170.011,169 L1171.16751,170.975547 C1181.91386,189.439563 1191.558,208.618821 1200,228.4414 L1200,228.4414 L725,426 L1170.011,169 Z M242.911746,230 L718,425.994814 L718,426 L221,292.869784 C226.885328,271.66718 234.175582,250.674108 242.911746,230 L242.911746,230 Z M205.768739,360 L716,425.979425 L716,425.980454 L201,426 C201.158362,404.019546 202.728606,381.976339 205.768739,360 L205.768739,360 Z M855.130216,-71 C876.33282,-65.1146716 897.325892,-57.8244183 918,-49.0882543 L918,-49.0882543 L722.005186,426 L722,426 Z M1087.52978,62 C1102.94015,77.7079247 1117.46927,94.5292057 1131,112.4436 L1131,112.4436 L724,426 Z M308.384895,112 L717,425 L271,167.269478 C282.212047,148.147235 294.679035,129.676167 308.384895,112 L308.384895,112 Z M981.730522,-21 C1000.85277,-9.78743439 1019.32383,2.67903516 1037,16.3848947 L1037,16.3848947 L724,425 Z M403.4436,17 L717,424 L353,60.4702168 C368.707925,45.0598492 385.529206,30.5307257 403.4436,17 L403.4436,17 Z M521.098555,-52 L719,424 L461,-22.8197085 C480.298845,-33.7786768 500.360087,-43.5436982 521.098555,-52 L521.098555,-52 Z M722,-91 C743.980454,-90.84169 766.023661,-89.2713936 788,-86.2312607 L788,-86.2312607 L722.020575,424 L722.019546,424 Z M652.822821,-86 L720.988,423.956 L587,-73.5195545 C607.699984,-78.8423315 628.89197,-82.9321768 650.505479,-85.70766 L652.822821,-86 Z" id="raios" fill="#FFFFFF" fill-rule="nonzero" opacity="0.042875744" mask="url(#mask-3)"></path>
            <circle id="Oval" fill="url(#radialGradient-4)" mask="url(#mask-3)" cx="720" cy="289" r="206"></circle>
            <g id="Group" mask="url(#mask-3)">
                <g transform="translate(240.000000, 154.000000)">
                    <g fill="#FFFFFF" fill-opacity="0.3" id="nuvem">
                        <g>
                            <path d="M25.7228754,80.8908003 C34.5819535,68.2326209 39.0955393,89.7784582 51.578086,80.8908003 C64.0606327,72.0031425 62.6713357,47.7640755 99.5009449,55.3051186 C124.054018,60.3324806 137.638918,70.5667533 140.255645,86.0079367 C141.764468,42.7821888 155.701794,25.5120007 182.067625,34.1973723 C221.61637,47.2254296 185.305534,19.9391046 209.127293,5.27500039 C232.949052,-9.38910382 253.681018,9.2086719 253.681018,28.2170508 C253.681018,47.2254296 249.980555,40.2230325 262.667506,36.183188 C275.354457,32.1433435 292.879278,48.6793528 286.979852,68.2326209 C289.258313,75.7168537 310.084284,56.6517455 314.429803,98.3967931 C314.429803,83.853353 332.780364,86.9926488 334,100.8207 C334,113.389105 319.209574,118.506241 289.628721,116.172109 C107.481885,119.94263 11.8653958,119.94263 2.77925455,116.172109 C-4.63794214,105.235072 4.48674563,99.8991103 10.4078549,103.783252 C9.77003019,87.9500078 15.3460275,82.5067381 25.7228754,80.8908003 Z"></path>
                        </g>
                    </g>
                    <g transform="translate(7.000000, 20.000000)" fill="#F9F9F9" id="nuvem">
                        <path d="M29.1885323,79.0056142 C39.2411987,66.6424377 44.3629023,87.6861423 58.5272293,79.0056142 C72.6915563,70.325086 71.1150785,46.6509184 112.906761,54.016215 C140.767882,58.9264127 156.183083,68.9221724 159.152364,84.003494 C160.864471,41.7851361 176.679581,24.9174353 206.597694,33.4003915 C251.474863,46.1248258 210.271848,19.4744173 237.303126,5.1520648 C264.334403,-9.17028773 287.859598,8.99406083 287.859598,27.5594433 C287.859598,46.1248258 283.66057,39.2856218 298.056841,35.3399272 C312.453112,31.3942325 332.339061,47.5448648 325.644802,66.6424377 C328.230242,73.952248 351.862106,55.3314583 356.7931,96.1036242 C356.7931,81.8991236 377.616041,84.9652571 379,98.4710409 C379,110.746535 362.216852,115.744415 328.650555,113.46468 C121.962977,117.147329 13.464027,117.147329 3.15370502,113.46468 C-5.26281458,102.782534 5.09124729,97.5709293 11.8101108,101.36455 C11.0863516,85.9003045 17.4136061,80.583892 29.1885323,79.0056142 Z"></path>
                    </g>
                    <g transform="translate(73.000000, 30.000000)" fill="#FFFFFF" id="nuvem">
                        <path d="M27.1091382,73.4134995 C36.4456515,61.9254039 41.2024845,81.4796091 54.3577433,73.4134995 C67.5130022,65.3473898 66.0488328,43.3489089 104.863271,50.1928807 C130.739564,54.7555286 145.056584,64.0437761 147.814333,78.0576232 C149.404469,38.8275327 164.092909,23.1537485 191.879652,31.0362706 C233.559768,42.8600538 195.292059,18.0959941 220.397626,4.78739531 C245.503192,-8.52120346 267.35245,8.35745013 267.35245,25.6087519 C267.35245,42.8600538 263.452561,36.5049371 276.82324,32.8385236 C290.193919,29.1721101 308.663192,44.1795807 302.445832,61.9254039 C304.847085,68.7178168 326.795413,51.4150295 331.375122,89.3012912 C331.375122,76.1022027 350.714635,78.9513115 352,91.5011393 C352,102.907759 336.412485,107.551883 305.237455,105.433511 C113.274322,108.855496 12.5048483,108.855496 2.92903474,105.433511 C-4.88789112,95.5074599 4.72854629,90.6647387 10.9687573,94.1898425 C10.2965588,79.8201751 16.1730589,74.8800649 27.1091382,73.4134995 Z"></path>
                    </g>
                </g>
            </g>
            <g id="Group" mask="url(#mask-3)">
                <g transform="translate(775.000000, 153.000000)" id="nuvens">
                    <g transform="translate(212.500000, 69.000000) scale(-1, 1) translate(-212.500000, -69.000000) ">
                        <g id="Group" fill="#FFFFFF" fill-opacity="0.3">
                            <g id="nuvem">
                                <path d="M25.7228754,80.8908003 C34.5819535,68.2326209 39.0955393,89.7784582 51.578086,80.8908003 C64.0606327,72.0031425 62.6713357,47.7640755 99.5009449,55.3051186 C124.054018,60.3324806 137.638918,70.5667533 140.255645,86.0079367 C141.764468,42.7821888 155.701794,25.5120007 182.067625,34.1973723 C221.61637,47.2254296 185.305534,19.9391046 209.127293,5.27500039 C232.949052,-9.38910382 253.681018,9.2086719 253.681018,28.2170508 C253.681018,47.2254296 249.980555,40.2230325 262.667506,36.183188 C275.354457,32.1433435 292.879278,48.6793528 286.979852,68.2326209 C289.258313,75.7168537 310.084284,56.6517455 314.429803,98.3967931 C314.429803,83.853353 332.780364,86.9926488 334,100.8207 C334,113.389105 319.209574,118.506241 289.628721,116.172109 C107.481885,119.94263 11.8653958,119.94263 2.77925455,116.172109 C-4.63794214,105.235072 4.48674563,99.8991103 10.4078549,103.783252 C9.77003019,87.9500078 15.3460275,82.5067381 25.7228754,80.8908003 Z"></path>
                            </g>
                        </g>
                        <g id="nuvem" transform="translate(7.000000, 20.000000)" fill="#F9F9F9">
                            <path d="M29.1885323,79.0056142 C39.2411987,66.6424377 44.3629023,87.6861423 58.5272293,79.0056142 C72.6915563,70.325086 71.1150785,46.6509184 112.906761,54.016215 C140.767882,58.9264127 156.183083,68.9221724 159.152364,84.003494 C160.864471,41.7851361 176.679581,24.9174353 206.597694,33.4003915 C251.474863,46.1248258 210.271848,19.4744173 237.303126,5.1520648 C264.334403,-9.17028773 287.859598,8.99406083 287.859598,27.5594433 C287.859598,46.1248258 283.66057,39.2856218 298.056841,35.3399272 C312.453112,31.3942325 332.339061,47.5448648 325.644802,66.6424377 C328.230242,73.952248 351.862106,55.3314583 356.7931,96.1036242 C356.7931,81.8991236 377.616041,84.9652571 379,98.4710409 C379,110.746535 362.216852,115.744415 328.650555,113.46468 C121.962977,117.147329 13.464027,117.147329 3.15370502,113.46468 C-5.26281458,102.782534 5.09124729,97.5709293 11.8101108,101.36455 C11.0863516,85.9003045 17.4136061,80.583892 29.1885323,79.0056142 Z"></path>
                        </g>
                        <g id="nuvem" transform="translate(73.000000, 30.000000)" fill="#FFFFFF">
                            <path d="M27.1091382,73.4134995 C36.4456515,61.9254039 41.2024845,81.4796091 54.3577433,73.4134995 C67.5130022,65.3473898 66.0488328,43.3489089 104.863271,50.1928807 C130.739564,54.7555286 145.056584,64.0437761 147.814333,78.0576232 C149.404469,38.8275327 164.092909,23.1537485 191.879652,31.0362706 C233.559768,42.8600538 195.292059,18.0959941 220.397626,4.78739531 C245.503192,-8.52120346 267.35245,8.35745013 267.35245,25.6087519 C267.35245,42.8600538 263.452561,36.5049371 276.82324,32.8385236 C290.193919,29.1721101 308.663192,44.1795807 302.445832,61.9254039 C304.847085,68.7178168 326.795413,51.4150295 331.375122,89.3012912 C331.375122,76.1022027 350.714635,78.9513115 352,91.5011393 C352,102.907759 336.412485,107.551883 305.237455,105.433511 C113.274322,108.855496 12.5048483,108.855496 2.92903474,105.433511 C-4.88789112,95.5074599 4.72854629,90.6647387 10.9687573,94.1898425 C10.2965588,79.8201751 16.1730589,74.8800649 27.1091382,73.4134995 Z"></path>
                        </g>
                    </g>
                </g>
            </g>
            <g id="bandeirinhas" mask="url(#mask-3)">
                <g transform="translate(238.000000, -546.000000)">
                    <g id="bandeirinhas" transform="translate(0.000000, 328.000000)">
                        <path d="M55.7547536,356.8597 L55.053427,355.644028 L55.053427,355.644028 C194.487742,391.827197 336.722113,357.324478 443.084435,274.480645 C516.509665,217.290962 572.839813,137.063975 599.3521,41.1501258 L600.053427,42.3657981 L600.053427,42.3657981 C535.135134,277.217087 291.444586,418.020648 55.7547536,356.8597 Z" id="Oval-Copy-15" fill="#826C02" transform="translate(327.553427, 206.150126) rotate(9.000000) translate(-327.553427, -206.150126) "></path>
                        <polygon id="Rectangle-Copy-27" fill="#B82369" transform="translate(402.244634, 319.691533) rotate(-16.000000) translate(-402.244634, -319.691533) " points="388.374992 309.313527 412.700841 305.913197 416.114277 330.069538 402.457021 319.692714 391.788427 333.469869"></polygon>
                        <polygon id="Rectangle-Copy-19" fill="#D36627" transform="translate(427.896835, 307.079444) rotate(-15.000000) translate(-427.896835, -307.079444) " points="413.331638 297.687683 437.359909 292.610692 442.462032 316.471206 428.108792 307.065911 418.43376 321.548197"></polygon>
                        <polygon id="Rectangle-Copy-20" fill="#D9A326" transform="translate(452.126317, 293.001391) rotate(-16.000000) translate(-452.126317, -293.001391) " points="436.93643 284.641958 460.550484 277.912806 467.316204 301.360825 452.336815 292.973206 443.70215 308.089977"></polygon>
                        <polygon id="Rectangle-Copy-28" fill="#87AD1F" transform="translate(475.621221, 278.205845) rotate(-14.000000) translate(-475.621221, -278.205845) " points="459.880831 270.918987 482.96496 262.570758 491.361612 285.492704 475.829229 278.16315 468.277483 293.840933"></polygon>
                        <polygon id="Rectangle-Copy-30" fill="#B82369" transform="translate(209.510850, 360.012231) rotate(8.000000) translate(-209.510850, -360.012231) " points="195.64046 349.630307 219.963152 346.234668 223.38124 370.394154 209.723215 360.013456 199.058548 373.789794"></polygon>
                        <polygon id="Rectangle-Copy-26" fill="#D36627" transform="translate(238.405916, 359.524570) rotate(9.000000) translate(-238.405916, -359.524570) " points="223.905916 350.10816 247.822326 345.02457 252.905916 368.94098 238.616892 359.51105 228.989506 374.02457"></polygon>
                        <polygon id="Rectangle-Copy-25" fill="#D9A326" transform="translate(266.234185, 356.821562) rotate(8.000000) translate(-266.234185, -356.821562) " points="251.044101 348.458141 274.65438 341.733197 281.424268 365.184983 266.444655 356.793418 257.813989 371.909927"></polygon>
                        <polygon id="Rectangle-Copy-29" fill="#87AD1F" transform="translate(293.795985, 352.782178) rotate(10.000000) translate(-293.795985, -352.782178) " points="278.055397 345.49133 301.135754 337.14731 309.536574 360.073026 294.003966 352.739523 286.456216 368.417046"></polygon>
                        <polygon id="Rectangle-Copy-5" fill="#70C2C0" transform="translate(321.322640, 346.642529) rotate(8.000000) translate(-321.322640, -346.642529) " points="305.33404 339.897971 328.1048 330.764184 337.31124 353.387086 321.528982 346.592738 314.540481 362.520874"></polygon>
                        <polygon id="Rectangle-Copy-24" fill="#4D74A8" transform="translate(348.521091, 338.734465) rotate(9.000000) translate(-348.521091, -338.734465) " points="332.021091 333.050701 354.200155 322.234465 365.021091 344.418229 348.724394 338.669731 342.842026 355.234465"></polygon>
                        <polygon id="Rectangle-Copy-23" fill="#6F1559" transform="translate(376.116366, 330.278652) rotate(9.000000) translate(-376.116366, -330.278652) " points="359.616366 325.547353 380.847665 313.778652 392.616366 335.009951 376.312748 330.204576 371.385067 346.778652"></polygon>
                        <polygon id="Rectangle-Copy-36" fill="#B82369" transform="translate(19.645102, 317.251728) rotate(32.000000) translate(-19.645102, -317.251728) " points="5.77129987 306.867738 30.0953654 303.477585 33.5189037 327.635718 19.8574855 317.252999 9.1948382 331.025872"></polygon>
                        <polygon id="Rectangle-Copy-35" fill="#D36627" transform="translate(44.834274, 326.963937) rotate(33.000000) translate(-44.834274, -326.963937) " points="30.2651261 317.566047 54.2912649 312.499164 59.4034224 336.361826 45.0462252 326.950492 35.3772835 341.428709"></polygon>
                        <polygon id="Rectangle-Copy-34" fill="#D9A326" transform="translate(70.523917, 336.807983) rotate(34.000000) translate(-70.523917, -336.807983) " points="55.3304052 328.441962 78.941544 321.723049 85.7174296 345.174004 70.734403 336.77989 62.1062908 351.892917"></polygon>
                        <polygon id="Rectangle-Copy-33" fill="#87AD1F" transform="translate(97.650678, 345.228220) rotate(34.000000) translate(-97.650678, -345.228220) " points="81.9069922 337.93485 104.987953 329.596448 113.394363 352.52159 97.8586708 345.185613 90.3134018 360.859992"></polygon>
                        <polygon id="Rectangle-Copy-6" fill="#70C2C0" transform="translate(124.397619, 351.129066) rotate(32.000000) translate(-124.397619, -351.129066) " points="108.406201 344.381677 131.176975 335.253538 140.389037 357.876456 124.603968 351.079324 117.618263 367.004595"></polygon>
                        <polygon id="Rectangle-Copy-32" fill="#4D74A8" transform="translate(152.650241, 356.240706) rotate(33.000000) translate(-152.650241, -356.240706) " points="136.225324 350.619222 158.299627 339.932724 169.075157 361.862189 152.852591 356.176763 147.000854 372.548687"></polygon>
                        <polygon id="Rectangle-Copy-31" fill="#6F1559" transform="translate(181.632585, 359.265267) rotate(33.000000) translate(-181.632585, -359.265267) " points="164.935083 354.507111 186.416743 342.68486 198.330087 364.023424 181.83129 359.190867 176.848426 375.845675"></polygon>
                    </g>
                    <g id="Group" transform="translate(79.000000, 91.000000)">
                        <path d="M86.3907315,581.932503 L85.4140216,580.237929 L85.4140216,580.237929 C279.598691,630.675073 477.682889,582.580375 625.809499,467.101092 C728.06592,387.38214 806.514695,275.550582 843.437312,141.85249 L844.414022,143.547063 L844.414022,143.547063 C754.004876,470.915527 414.626663,667.187158 86.3907315,581.932503 Z" id="Oval-Copy-15" fill="#826C02" transform="translate(464.914022, 371.852490) rotate(9.000000) translate(-464.914022, -371.852490) "></path>
                        <polygon id="Rectangle-Copy-27" fill="#C81368" transform="translate(568.233352, 530.098794) rotate(-16.000000) translate(-568.233352, -530.098794) " points="548.900442 515.633298 582.807475 510.89477 587.566261 544.564291 568.529391 530.100448 553.659228 549.302819"></polygon>
                        <polygon id="Rectangle-Copy-19" fill="#E56115" transform="translate(603.989468, 512.520483) rotate(-15.000000) translate(-603.989468, -512.520483) " points="583.687071 499.429627 617.179293 492.354119 624.291864 525.611338 604.284908 512.501627 590.799642 532.686846"></polygon>
                        <polygon id="Rectangle-Copy-20" fill="#ECAB13" transform="translate(637.762451, 492.898892) rotate(-16.000000) translate(-637.762451, -492.898892) " points="616.589362 481.246856 649.50412 471.868552 658.93554 504.550928 638.055857 492.859615 626.020783 513.929232"></polygon>
                        <polygon id="Rectangle-Copy-28" fill="#8EBD0F" transform="translate(670.511505, 472.277251) rotate(-14.000000) translate(-670.511505, -472.277251) " points="648.571101 462.120216 680.747227 450.485173 692.45191 482.434287 670.801441 472.21775 660.275784 494.06933"></polygon>
                        <polygon id="Rectangle-Copy-4" fill="#68CAC9" transform="translate(702.148149, 448.692732) rotate(-16.000000) translate(-702.148149, -448.692732) " points="679.86151 439.297061 711.606571 426.561832 724.434788 458.088403 702.435805 448.623289 692.689727 470.823633"></polygon>
                        <polygon id="Rectangle-Copy-21" fill="#4373B2" transform="translate(732.583278, 423.664800) rotate(-15.000000) translate(-732.583278, -423.664800) " points="709.692093 415.838561 740.466793 400.931449 755.474462 431.491038 732.865363 423.575564 724.699762 446.398151"></polygon>
                        <polygon id="Rectangle-Copy-22" fill="#790C5E" transform="translate(762.751218, 396.449500) rotate(-16.000000) translate(-762.751218, -396.449500) " points="739.479493 389.826903 769.429039 373.337029 786.022942 403.072098 763.028232 396.345691 756.073396 419.561972"></polygon>
                        <polygon id="Rectangle-Copy-42" fill="#C81368" transform="translate(789.425830, 367.244636) rotate(-40.000000) translate(-789.425830, -367.244636) " points="770.089968 352.783029 804.003857 348.043531 808.761692 381.706242 789.721927 367.246273 774.847803 386.44574"></polygon>
                        <polygon id="Rectangle-Copy-41" fill="#E56115" transform="translate(814.946538, 336.636946) rotate(-41.000000) translate(-814.946538, -336.636946) " points="794.640674 323.550053 828.140337 316.474014 835.252402 349.723839 815.242042 336.618077 801.752739 356.799878"></polygon>
                        <polygon id="Rectangle-Copy-40" fill="#ECAB13" transform="translate(836.578866, 305.399032) rotate(-40.000000) translate(-836.578866, -305.399032) " points="815.40231 293.750442 848.323988 284.372125 857.755422 317.047622 836.872331 305.359747 824.833743 326.42594"></polygon>
                        <polygon id="Rectangle-Copy-39" fill="#8EBD0F" transform="translate(857.686162, 271.988560) rotate(-40.000000) translate(-857.686162, -271.988560) " points="835.741893 261.835109 867.925472 250.200309 879.630431 282.142012 857.976162 271.929051 847.446852 293.776812"></polygon>
                        <polygon id="Rectangle-Copy-7" fill="#68CAC9" transform="translate(877.001498, 237.570636) rotate(-40.000000) translate(-877.001498, -237.570636) " points="854.71105 228.178034 886.462991 215.443509 899.291946 246.963237 877.289214 237.50119 867.540005 259.697762"></polygon>
                        <polygon id="Rectangle-Copy-38" fill="#4373B2" transform="translate(894.632308, 202.323109) rotate(-39.000000) translate(-894.632308, -202.323109) " points="871.737209 194.499807 902.51876 179.593636 917.527407 210.146411 894.914454 202.233872 886.745857 225.052581"></polygon>
                        <polygon id="Rectangle-Copy-37" fill="#790C5E" transform="translate(910.700863, 163.939772) rotate(-41.000000) translate(-910.700863, -163.939772) " points="887.424775 157.319785 917.381296 140.831627 933.976952 170.559759 910.977939 163.835968 904.02043 187.047917"></polygon>
                        <polygon id="Rectangle-Copy-30" fill="#C81368" transform="translate(299.584577, 586.294810) rotate(8.000000) translate(-299.584577, -586.294810) " points="280.250752 571.824516 314.15392 567.091732 318.918401 600.765104 299.880591 586.296518 285.015234 605.497887"></polygon>
                        <polygon id="Rectangle-Copy-26" fill="#E56115" transform="translate(339.914022, 585.352490) rotate(9.000000) translate(-339.914022, -585.352490) " points="319.414022 572.039634 353.226877 564.85249 360.414022 598.665346 340.212299 585.333376 326.601166 605.85249"></polygon>
                        <polygon id="Rectangle-Copy-25" fill="#ECAB13" transform="translate(378.650524, 581.848505) rotate(8.000000) translate(-378.650524, -581.848505) " points="357.477194 570.191587 390.387331 560.818435 399.823853 593.505423 378.943897 581.809279 366.913717 602.878576"></polygon>
                        <polygon id="Rectangle-Copy-29" fill="#8EBD0F" transform="translate(417.068536, 576.218832) rotate(10.000000) translate(-417.068536, -576.218832) " points="395.127889 566.056912 427.299397 554.427022 439.009183 586.380752 417.358439 576.15938 406.837674 598.010642"></polygon>
                        <polygon id="Rectangle-Copy-5" fill="#68CAC9" transform="translate(455.437528, 567.661815) rotate(8.000000) translate(-455.437528, -567.661815) " points="433.151157 558.26126 464.89109 545.530672 477.723899 577.062371 455.725146 567.592418 445.983966 589.792958"></polygon>
                        <polygon id="Rectangle-Copy-24" fill="#4373B2" transform="translate(493.414022, 556.852490) rotate(9.000000) translate(-493.414022, -556.852490) " points="470.414022 548.929668 501.330294 533.85249 516.414022 564.775312 493.697414 556.762254 485.49775 579.85249"></polygon>
                        <polygon id="Rectangle-Copy-23" fill="#790C5E" transform="translate(531.414022, 544.852490) rotate(9.000000) translate(-531.414022, -544.852490) " points="508.414022 538.257346 538.009166 521.85249 554.414022 551.447634 531.687767 544.749232 524.818878 567.85249"></polygon>
                        <polygon id="Rectangle-Copy-36" fill="#C81368" transform="translate(34.932293, 526.692531) rotate(32.000000) translate(-34.932293, -526.692531) " points="15.5942911 512.219707 49.49914 507.49364 54.2702945 541.165355 35.2283294 526.694295 20.3654456 545.891422"></polygon>
                        <polygon id="Rectangle-Copy-35" fill="#E56115" transform="translate(70.043330, 540.229752) rotate(33.000000) translate(-70.043330, -540.229752) " points="49.7360967 527.131394 83.2257069 520.068262 90.3505637 553.328111 70.3387639 540.211006 56.8609536 560.391243"></polygon>
                        <polygon id="Rectangle-Copy-34" fill="#ECAB13" transform="translate(105.851970, 553.950737) rotate(34.000000) translate(-105.851970, -553.950737) " points="84.6744426 542.290635 117.585631 532.924867 127.029497 565.610838 106.145361 553.911572 94.1183087 574.976606"></polygon>
                        <polygon id="Rectangle-Copy-33" fill="#8EBD0F" transform="translate(143.663769, 565.687240) rotate(34.000000) translate(-143.663769, -565.687240) " points="121.71933 555.522233 153.891578 543.899222 165.608208 575.852248 143.953687 565.627846 133.43596 587.475259"></polygon>
                        <polygon id="Rectangle-Copy-6" fill="#68CAC9" transform="translate(180.946106, 573.912220) rotate(32.000000) translate(-180.946106, -573.912220) " points="158.656284 564.508196 190.396236 551.784525 203.235928 583.316243 181.233733 573.842881 171.495976 596.039914"></polygon>
                        <polygon id="Rectangle-Copy-32" fill="#4373B2" transform="translate(220.327181, 581.037226) rotate(33.000000) translate(-220.327181, -581.037226) " points="197.433104 573.202528 228.2023 558.306787 243.221258 588.871924 220.609234 580.948095 212.452063 603.767666"></polygon>
                        <polygon id="Rectangle-Copy-31" fill="#790C5E" transform="translate(260.725377, 585.253281) rotate(33.000000) translate(-260.725377, -585.253281) " points="237.451319 578.621907 267.394486 562.143162 283.999435 591.884655 261.002351 585.149575 254.056268 608.3634"></polygon>
                    </g>
                    <g id="Group" transform="translate(274.000000, 0.000000)">
                        <path d="M99.1779071,673.691156 L98.0454899,671.727661 L98.0454899,671.727661 C323.187136,730.16896 552.849974,674.441842 724.590971,540.6365 C843.14914,448.266497 934.104241,318.687756 976.913073,163.772358 L978.04549,165.735853 L978.04549,165.735853 C873.223292,545.056269 479.741306,772.475354 99.1779071,673.691156 Z" id="Oval-Copy-15" fill="#826C02" transform="translate(538.045490, 430.272358) rotate(9.000000) translate(-538.045490, -430.272358) "></path>
                        <polygon id="Rectangle-Copy-19" fill="#FB4D3D" transform="translate(699.520424, 593.778597) rotate(-15.000000) translate(-699.520424, -593.778597) " points="675.98662 578.603815 714.810413 570.400689 723.054227 608.953379 699.862894 593.75673 684.230435 617.156505"></polygon>
                        <polygon id="Rectangle-Copy-20" fill="#FFB400" transform="translate(738.669335, 571.031970) rotate(-16.000000) translate(-738.669335, -571.031970) " points="714.126188 557.525172 752.280702 546.652563 763.212483 584.538768 739.009448 570.986431 725.057969 595.411377"></polygon>
                        <polygon id="Rectangle-Copy-28" fill="#98CE00" transform="translate(776.631348, 547.126053) rotate(-14.000000) translate(-776.631348, -547.126053) " points="751.198723 535.352272 788.497009 521.863634 802.063974 558.899834 776.967438 547.057068 764.765688 572.388473"></polygon>
                        <polygon id="Rectangle-Copy-4" fill="#60D3D2" transform="translate(813.303923, 519.785448) rotate(-16.000000) translate(-813.303923, -519.785448) " points="787.469901 508.894335 824.268621 494.130303 839.137946 530.676561 813.637371 519.704938 802.339226 545.440593"></polygon>
                        <polygon id="Rectangle-Copy-21" fill="#3A72BC" transform="translate(848.583753, 490.771588) rotate(-15.000000) translate(-848.583753, -490.771588) " points="822.048921 481.699803 857.722835 464.418093 875.118585 499.843373 848.910744 490.668135 839.44467 517.125083"></polygon>
                        <polygon id="Rectangle-Copy-22" fill="#820263" transform="translate(883.553891, 459.222038) rotate(-16.000000) translate(-883.553891, -459.222038) " points="856.577891 451.545592 891.295392 432.429105 910.52989 466.898484 883.875004 459.10169 875.812389 486.01497"></polygon>
                        <polygon id="Rectangle-Copy-42" fill="#D90368" transform="translate(914.474687, 425.366136) rotate(-40.000000) translate(-914.474687, -425.366136) " points="892.060848 408.60294 931.374464 403.107607 936.888527 442.129332 914.817927 425.368022 897.574911 447.624664"></polygon>
                        <polygon id="Rectangle-Copy-41" fill="#FB4D3D" transform="translate(944.057927, 389.884030) rotate(-41.000000) translate(-944.057927, -389.884030) " points="920.519566 374.714456 959.353139 366.510632 967.596288 405.053604 944.40048 389.862146 928.762715 413.257429"></polygon>
                        <polygon id="Rectangle-Copy-40" fill="#FFB400" transform="translate(969.133875, 353.671387) rotate(-40.000000) translate(-969.133875, -353.671387) " points="944.586172 340.169118 982.749781 329.296491 993.681579 367.173656 969.474066 353.625836 955.51797 378.046283"></polygon>
                        <polygon id="Rectangle-Copy-39" fill="#98CE00" transform="translate(993.601248, 314.940224) rotate(-40.000000) translate(-993.601248, -314.940224) " points="968.163544 303.171152 1005.47162 289.682833 1019.03895 326.709296 993.937422 314.87123 981.730871 340.197615"></polygon>
                        <polygon id="Rectangle-Copy-7" fill="#60D3D2" transform="translate(1015.991443, 275.041197) rotate(-40.000000) translate(-1015.991443, -275.041197) " points="990.152415 264.154118 1026.96018 249.391012 1041.83047 285.928276 1016.32497 274.960684 1005.02271 300.691383"></polygon>
                        <polygon id="Rectangle-Copy-38" fill="#3A72BC" transform="translate(1036.428994, 234.180479) rotate(-39.000000) translate(-1036.428994, -234.180479) " points="1009.88902 225.112553 1045.57193 207.832081 1062.96897 243.248405 1036.75606 234.077025 1027.28605 260.528877"></polygon>
                        <polygon id="Rectangle-Copy-37" fill="#820263" transform="translate(1055.055661, 189.684609) rotate(-41.000000) translate(-1055.055661, -189.684609) " points="1028.07393 182.011593 1062.80059 162.897362 1082.03739 197.357624 1055.37686 189.564269 1047.31073 216.471855"></polygon>
                        <polygon id="Rectangle-Copy-30" fill="#D90368" transform="translate(346.662092, 679.304717) rotate(8.000000) translate(-346.662092, -679.304717) " points="324.25093 662.530104 363.550456 657.043595 369.073253 696.079329 347.005222 679.306696 329.773727 701.565838"></polygon>
                        <polygon id="Rectangle-Copy-26" fill="#FB4D3D" transform="translate(393.045490, 678.772358) rotate(9.000000) translate(-393.045490, -678.772358) " points="369.04549 663.186576 408.631272 654.772358 417.04549 694.35814 393.394692 678.74998 377.459708 702.772358"></polygon>
                        <polygon id="Rectangle-Copy-25" fill="#FFB400" transform="translate(438.313132, 674.149421) rotate(8.000000) translate(-438.313132, -674.149421) " points="413.769668 660.636207 451.918109 649.770369 462.856596 687.662634 438.653201 674.103947 424.708155 698.528473"></polygon>
                        <polygon id="Rectangle-Copy-29" fill="#98CE00" transform="translate(482.846261, 667.622795) rotate(10.000000) translate(-482.846261, -667.622795) " points="457.413317 655.842595 494.705535 642.360728 508.279205 679.402995 483.182308 667.553876 470.986987 692.884862"></polygon>
                        <polygon id="Rectangle-Copy-5" fill="#60D3D2" transform="translate(527.322602, 657.702662) rotate(8.000000) translate(-527.322602, -657.702662) " points="501.488932 646.80513 538.280914 632.047198 553.156273 668.600193 527.656 657.622213 516.364291 683.358126"></polygon>
                        <polygon id="Rectangle-Copy-24" fill="#3A72BC" transform="translate(571.545490, 645.272358) rotate(9.000000) translate(-571.545490, -645.272358) " points="545.04549 636.143889 580.666412 618.772358 598.04549 654.400828 571.872007 645.168391 562.424568 671.772358"></polygon>
                        <polygon id="Rectangle-Copy-23" fill="#820263" transform="translate(615.545490, 631.272358) rotate(9.000000) translate(-615.545490, -631.272358) " points="589.04549 623.673606 623.144243 604.772358 642.04549 638.871111 615.860892 631.153387 607.946737 657.772358"></polygon>
                        <g transform="translate(10.429526, 580.968652)" fill="#D90368" id="flag">
                            <g transform="translate(29.500000, 29.500000) rotate(9.000000) translate(-29.500000, -29.500000) ">
                                <polygon id="Rectangle-Copy-36" transform="translate(29.416651, 29.255619) rotate(23.000000) translate(-29.416651, -29.255619) " points="7 12.4776824 46.3017362 7 51.8333021 46.0335564 29.7598111 29.2576718 12.531566 51.5112388"></polygon>
                            </g>
                        </g>
                        <polygon id="Rectangle-Copy-35" fill="#FB4D3D" transform="translate(80.584984, 625.906775) rotate(33.000000) translate(-80.584984, -625.906775) " points="57.0448234 610.722133 95.8651843 602.53527 104.125144 641.091417 80.9274447 625.885052 65.3047832 649.27828"></polygon>
                        <polygon id="Rectangle-Copy-34" fill="#FFB400" transform="translate(122.093173, 641.812327) rotate(34.000000) translate(-122.093173, -641.812327) " points="97.5441927 628.29493 135.694017 617.438796 146.642153 655.329724 122.433266 641.766935 108.492329 666.185858"></polygon>
                        <polygon id="Rectangle-Copy-33" fill="#98CE00" transform="translate(165.923391, 655.417357) rotate(34.000000) translate(-165.923391, -655.417357) " points="140.485464 643.633099 177.778653 630.160272 191.361318 667.201615 166.259457 655.348514 154.068128 680.674442"></polygon>
                        <polygon id="Rectangle-Copy-6" fill="#60D3D2" transform="translate(209.139913, 664.951677) rotate(32.000000) translate(-209.139913, -664.951677) " points="183.301707 654.049588 220.093714 639.300745 234.978118 675.853765 209.473322 664.871305 198.186112 690.602608"></polygon>
                        <polygon id="Rectangle-Copy-32" fill="#3A72BC" transform="translate(254.789245, 673.210834) rotate(33.000000) translate(-254.789245, -673.210834) " points="228.250612 664.127932 263.917293 646.861165 281.327878 682.293736 255.116193 673.107518 245.661198 699.560503"></polygon>
                        <polygon id="Rectangle-Copy-31" fill="#820263" transform="translate(301.617630, 678.097792) rotate(33.000000) translate(-301.617630, -678.097792) " points="274.638564 670.409814 309.347682 651.307951 328.596696 685.785771 301.93869 677.97758 293.887578 704.887633"></polygon>
                    </g>
                </g>
            </g>
        </g>
    </g>
</svg>